<svg width="64" height="64" viewBox="0 0 64 64" fill="none" xmlns="http://www.w3.org/2000/svg">
<g clip-path="url(#clip0_1_378)">
<path d="M63.4507 52.8442L52.6372 42.0307L57.9406 36.7275C58.4001 36.268 58.589 35.6033 58.4396 34.9708C58.2902 34.3383 57.8242 33.8283 57.2077 33.6228L25.388 23.0162C24.7144 22.7916 23.9714 22.967 23.4692 23.4692C22.967 23.9715 22.7916 24.7142 23.0162 25.388L33.6229 57.2078C33.8285 57.8243 34.3385 58.2905 34.9709 58.4397C35.6032 58.5893 36.268 58.4003 36.7275 57.9407L42.0309 52.6375L52.8444 63.4508C53.2105 63.817 53.6904 64.0001 54.1701 64.0001C54.6499 64.0001 55.1299 63.8171 55.4959 63.4508L63.4509 55.4958C64.1831 54.7636 64.1831 53.5765 63.4507 52.8442ZM54.17 59.4733L43.3565 48.66C42.6244 47.9277 41.437 47.9277 40.7049 48.66L36.221 53.1438L27.7596 27.7597L53.1437 36.2211L48.6599 40.705C47.9282 41.4365 47.9276 42.6245 48.6599 43.3566L59.4734 54.1701L54.17 59.4733Z" fill="white"/>
<path d="M24.375 15C25.4105 15 26.25 14.1605 26.25 13.125V1.875C26.25 0.8395 25.4105 0 24.375 0C23.3395 0 22.5 0.8395 22.5 1.875V13.125C22.5 14.1605 23.3395 15 24.375 15Z" fill="white"/>
<path d="M9.7909 7.13928C9.05878 6.40703 7.87153 6.40703 7.13928 7.13928C6.40703 7.87153 6.40703 9.05865 7.13928 9.7909L15.0943 17.7459C15.8264 18.4782 17.0138 18.4782 17.7459 17.7459C18.4782 17.0136 18.4782 15.8265 17.7459 15.0943L9.7909 7.13928Z" fill="white"/>
<path d="M15.0943 31.004L7.13928 38.959C6.40703 39.6913 6.40703 40.8784 7.13928 41.6106C7.8714 42.3429 9.05878 42.3429 9.7909 41.6106L17.7459 33.6556C18.4782 32.9234 18.4782 31.7363 17.7459 31.004C17.0136 30.2718 15.8264 30.2718 15.0943 31.004Z" fill="white"/>
<path d="M33.6557 17.7459L41.6107 9.7909C42.343 9.05865 42.343 7.87153 41.6107 7.13928C40.8786 6.40703 39.6914 6.40703 38.9591 7.13928L31.0041 15.0943C30.2719 15.8265 30.2719 17.0136 31.0041 17.7459C31.7362 18.4782 32.9236 18.4782 33.6557 17.7459Z" fill="white"/>
<path d="M15 24.375C15 23.3395 14.1605 22.5 13.125 22.5H1.875C0.8395 22.5 0 23.3395 0 24.375C0 25.4105 0.8395 26.25 1.875 26.25H13.125C14.1605 26.25 15 25.4105 15 24.375Z" fill="white"/>
<g clip-path="url(#clip1_1_378)">
<path d="M174.456 87.506C164.756 77.406 153.056 72.006 140.656 72.006C128.356 72.006 116.556 77.306 106.456 87.406L74.856 118.906C72.256 117.506 69.656 116.206 67.156 114.906C63.556 113.106 60.156 111.406 57.256 109.606C27.656 90.806 0.756023 66.306 -25.044 34.606C-37.544 18.806 -45.944 5.506 -52.044 -7.994C-43.844 -15.494 -36.244 -23.294 -28.844 -30.794C-26.044 -33.594 -23.244 -36.494 -20.444 -39.294C0.55603 -60.294 0.55603 -87.494 -20.444 -108.494L-47.744 -135.794C-50.844 -138.894 -54.044 -142.094 -57.044 -145.294C-63.044 -151.494 -69.344 -157.894 -75.844 -163.894C-85.544 -173.494 -97.144 -178.594 -109.344 -178.594C-121.544 -178.594 -133.344 -173.494 -143.344 -163.894C-143.444 -163.794 -143.444 -163.794 -143.544 -163.694L-177.544 -129.394C-190.344 -116.594 -197.644 -100.994 -199.244 -82.894C-201.644 -53.694 -193.044 -26.494 -186.444 -8.694C-170.244 35.006 -146.044 75.506 -109.944 118.906C-66.144 171.206 -13.444 212.506 46.756 241.606C69.756 252.506 100.456 265.406 134.756 267.606C136.856 267.706 139.056 267.806 141.056 267.806C164.156 267.806 183.556 259.506 198.756 243.006C198.856 242.806 199.056 242.706 199.156 242.506C204.356 236.206 210.356 230.506 216.656 224.406C220.956 220.306 225.356 216.006 229.656 211.506C239.556 201.206 244.756 189.206 244.756 176.906C244.756 164.506 239.456 152.606 229.356 142.606L174.456 87.506ZM210.256 192.806C210.156 192.806 210.156 192.906 210.256 192.806C206.356 197.006 202.356 200.806 198.056 205.006C191.556 211.206 184.956 217.706 178.756 225.006C168.656 235.806 156.756 240.906 141.156 240.906C139.656 240.906 138.056 240.906 136.556 240.806C106.856 238.906 79.256 227.306 58.556 217.406C1.95603 190.006 -47.744 151.106 -89.044 101.806C-123.144 60.706 -145.944 22.706 -161.044 -18.094C-170.344 -42.994 -173.744 -62.394 -172.244 -80.694C-171.244 -92.394 -166.744 -102.094 -158.444 -110.394L-124.344 -144.494C-119.444 -149.094 -114.244 -151.594 -109.144 -151.594C-102.844 -151.594 -97.744 -147.794 -94.544 -144.594C-94.444 -144.494 -94.344 -144.394 -94.244 -144.294C-88.144 -138.594 -82.344 -132.694 -76.244 -126.394C-73.144 -123.194 -69.944 -119.994 -66.744 -116.694L-39.444 -89.394C-28.844 -78.794 -28.844 -68.994 -39.444 -58.394C-42.344 -55.494 -45.144 -52.594 -48.044 -49.794C-56.444 -41.194 -64.444 -33.194 -73.144 -25.394C-73.344 -25.194 -73.544 -25.094 -73.644 -24.894C-82.244 -16.294 -80.644 -7.894 -78.844 -2.194C-78.744 -1.894 -78.644 -1.59401 -78.544 -1.29401C-71.444 15.906 -61.444 32.106 -46.244 51.406L-46.144 51.506C-18.544 85.506 10.556 112.006 42.656 132.306C46.756 134.906 50.956 137.006 54.956 139.006C58.556 140.806 61.956 142.506 64.856 144.306C65.256 144.506 65.656 144.806 66.056 145.006C69.456 146.706 72.656 147.506 75.956 147.506C84.256 147.506 89.456 142.306 91.156 140.606L125.356 106.406C128.756 103.006 134.156 98.906 140.456 98.906C146.656 98.906 151.756 102.806 154.856 106.206C154.956 106.306 154.956 106.306 155.056 106.406L210.156 161.506C220.456 171.706 220.456 182.206 210.256 192.806Z" fill="black"/>
<path d="M56.056 -93.294C82.256 -88.894 106.056 -76.494 125.056 -57.494C144.056 -38.494 156.356 -14.694 160.856 11.506C161.956 18.106 167.656 22.706 174.156 22.706C174.956 22.706 175.656 22.606 176.456 22.506C183.856 21.306 188.756 14.306 187.556 6.90604C182.156 -24.794 167.156 -53.694 144.256 -76.594C121.356 -99.494 92.456 -114.494 60.756 -119.894C53.356 -121.094 46.456 -116.194 45.156 -108.894C43.856 -101.594 48.656 -94.494 56.056 -93.294Z" fill="black"/>
<path d="M273.256 3.00606C264.356 -49.1939 239.756 -96.6939 201.956 -134.494C164.156 -172.294 116.656 -196.894 64.456 -205.794C57.156 -207.094 50.256 -202.094 48.956 -194.794C47.756 -187.394 52.656 -180.494 60.056 -179.194C106.656 -171.294 149.156 -149.194 182.956 -115.494C216.756 -81.6939 238.756 -39.1939 246.656 7.40607C247.756 14.0061 253.456 18.6061 259.956 18.6061C260.756 18.6061 261.456 18.5061 262.256 18.4061C269.556 17.3061 274.556 10.3061 273.256 3.00606Z" fill="black"/>
</g>
</g>
<defs>
<clipPath id="clip0_1_378">
<rect width="64" height="64" fill="white"/>
</clipPath>
<clipPath id="clip1_1_378">
<rect width="473.806" height="473.806" fill="white" transform="translate(-200 -206)"/>
</clipPath>
</defs>
</svg>
