<svg width="24" height="24" viewBox="0 0 24 24" fill="none" xmlns="http://www.w3.org/2000/svg">
<path d="M2.12 7.81001C2.87875 11.2531 4.60661 14.4073 7.09966 16.9004C9.59271 19.3934 12.7469 21.1213 16.19 21.88C17.2723 22.098 18.397 21.9068 19.3465 21.3434C20.2959 20.78 21.0027 19.8844 21.33 18.83L21.84 17.23L16.84 14.74L14.46 17.12C12.769 16.3912 11.2266 15.3573 9.91 14.07C8.64055 12.7493 7.62377 11.2071 6.91 9.52001L9.26 7.14001L6.77 2.14001L5.17 2.65001C4.11148 2.97756 3.21278 3.6874 2.64896 4.64127C2.08514 5.59514 1.89658 6.72473 2.12 7.81001V7.81001Z" fill="black"/>
</svg>
