<svg width="20" height="20" viewBox="0 0 20 20" fill="none" xmlns="http://www.w3.org/2000/svg">
<path d="M10 8.33334C10.6593 8.33334 11.3037 8.13784 11.8519 7.77157C12.4001 7.4053 12.8273 6.88471 13.0796 6.27562C13.3319 5.66653 13.3979 4.99631 13.2693 4.34971C13.1407 3.7031 12.8232 3.10916 12.357 2.64298C11.8909 2.17681 11.2969 1.85934 10.6503 1.73072C10.0037 1.6021 9.33349 1.66812 8.7244 1.92041C8.11531 2.1727 7.59472 2.59994 7.22844 3.14811C6.86217 3.69627 6.66668 4.34074 6.66668 5.00001C6.66668 5.88406 7.01787 6.73191 7.64299 7.35703C8.26811 7.98215 9.11595 8.33334 10 8.33334ZM16.425 13.5C14.7192 11.7993 12.4087 10.8443 10 10.8443C7.59128 10.8443 5.2808 11.7993 3.57501 13.5L3.33334 13.75V17.5H16.6667V13.75L16.425 13.5Z" fill="white"/>
</svg>
